<svg id="visual" viewBox="0 0 1000 1000" width="1000" height="1000" xmlns="http://www.w3.org/2000/svg" xmlns:xlink="http://www.w3.org/1999/xlink" version="1.1"><g transform="translate(597.798925425545 458.0798442419533)"><path d="M188.1 -283.1C220.6 -271.9 207.6 -180.4 228.1 -111.3C248.6 -42.2 302.4 4.5 335 75.7C367.5 146.8 378.8 242.3 340.3 305.1C301.9 367.9 213.8 397.9 124.1 425.7C34.4 453.5 -56.9 479.1 -111.9 437.3C-166.8 395.4 -185.4 286.1 -257.2 215.9C-329.1 145.6 -454 114.4 -514.8 41.7C-575.5 -31 -572 -145.3 -524.3 -235.1C-476.5 -324.8 -384.5 -390 -289.7 -372.7C-195 -355.5 -97.5 -255.9 -9.8 -240.6C77.9 -225.3 155.7 -294.4 188.1 -283.1" fill="none" stroke="#EA6C42" stroke-width="6"></path></g></svg>